<?xml version="1.0" encoding="UTF-8" standalone="no"?>
<svg
   xmlns:dc="http://purl.org/dc/elements/1.1/"
   xmlns:cc="http://creativecommons.org/ns#"
   xmlns:rdf="http://www.w3.org/1999/02/22-rdf-syntax-ns#"
   xmlns:svg="http://www.w3.org/2000/svg"
   xmlns="http://www.w3.org/2000/svg"
   xmlns:sodipodi="http://sodipodi.sourceforge.net/DTD/sodipodi-0.dtd"
   xmlns:inkscape="http://www.inkscape.org/namespaces/inkscape"
   inkscape:version="1.0rc1 (09960d6, 2020-04-09)"
   height="459.94455"
   width="545.21185"
   sodipodi:docname="logo_simple.svg"
   xml:space="preserve"
   viewBox="0 0 545.21186 459.94456"
   y="0px"
   x="0px"
   id="Layer_1"
   version="1.1"><metadata
   id="metadata1130"><rdf:RDF><cc:Work
       rdf:about=""><dc:format>image/svg+xml</dc:format><dc:type
         rdf:resource="http://purl.org/dc/dcmitype/StillImage" /><dc:title /></cc:Work></rdf:RDF></metadata><defs
   id="defs1128"><inkscape:path-effect
     effect="powerclip"
     id="path-effect1676"
     is_visible="true"
     lpeversion="1"
     inverse="true"
     flatten="false"
     hide_clip="false"
     message="Use fill-rule evenodd on &lt;b&gt;fill and stroke&lt;/b&gt; dialog if no flatten result after convert clip to paths." /><inkscape:path-effect
     effect="powerclip"
     id="path-effect1674"
     is_visible="true"
     lpeversion="1"
     inverse="true"
     flatten="false"
     hide_clip="false"
     message="Use fill-rule evenodd on &lt;b&gt;fill and stroke&lt;/b&gt; dialog if no flatten result after convert clip to paths." /><inkscape:path-effect
     effect="powerclip"
     id="path-effect1672"
     is_visible="true"
     lpeversion="1"
     inverse="true"
     flatten="false"
     hide_clip="false"
     message="Use fill-rule evenodd on &lt;b&gt;fill and stroke&lt;/b&gt; dialog if no flatten result after convert clip to paths." /><inkscape:path-effect
     message="Use fill-rule evenodd on &lt;b&gt;fill and stroke&lt;/b&gt; dialog if no flatten result after convert clip to paths."
     hide_clip="false"
     flatten="false"
     inverse="true"
     lpeversion="1"
     is_visible="true"
     id="path-effect893"
     effect="powerclip" /><inkscape:path-effect
     message="Use fill-rule evenodd on &lt;b&gt;fill and stroke&lt;/b&gt; dialog if no flatten result after convert clip to paths."
     hide_clip="false"
     flatten="false"
     inverse="true"
     lpeversion="1"
     is_visible="true"
     id="path-effect885"
     effect="powerclip" /><inkscape:path-effect
     message="Use fill-rule evenodd on &lt;b&gt;fill and stroke&lt;/b&gt; dialog if no flatten result after convert clip to paths."
     hide_clip="false"
     flatten="false"
     inverse="true"
     lpeversion="1"
     is_visible="true"
     id="path-effect900"
     effect="powerclip" /><inkscape:path-effect
     message="Use fill-rule evenodd on &lt;b&gt;fill and stroke&lt;/b&gt; dialog if no flatten result after convert clip to paths."
     hide_clip="false"
     flatten="false"
     inverse="true"
     lpeversion="1"
     is_visible="true"
     id="path-effect892"
     effect="powerclip" /><clipPath
     id="clipPath896"
     clipPathUnits="userSpaceOnUse"><rect
       d="M 267.65646,143.02388 H 501.68539 V 271.36307 H 267.65646 Z"
       y="143.02388"
       x="267.65646"
       height="128.33919"
       width="234.02893"
       id="rect898"
       style="display:none;fill:#ffffff;fill-opacity:1;stroke:#ffffff;stroke-width:10;stroke-miterlimit:4;stroke-dasharray:none;stroke-opacity:1" /><path
       inkscape:connector-curvature="0"
       d="M 284.96468,-5 H 500.98813 V 258.33833 H 284.96468 Z m -1.4197,140.04498 V 301.73802 H 500.57481 V 135.04498 Z"
       class="powerclip"
       style="fill-rule:evenodd"
       id="lpe_path-effect900" /></clipPath><clipPath
     id="clipPath881"
     clipPathUnits="userSpaceOnUse"><rect
       d="M 283.54498,135.04498 H 500.57481 V 301.73802 H 283.54498 Z"
       ry="0"
       y="135.04498"
       x="283.54498"
       height="166.69304"
       width="217.02983"
       id="rect883"
       style="display:none;fill:#ffffff;fill-opacity:1;stroke:#ffffff;stroke-width:1.08998" /><path
       inkscape:connector-curvature="0"
       d="M 284.96468,-5 H 500.98813 V 258.33833 H 284.96468 Z m -1.4197,140.04498 V 301.73802 H 500.57481 V 135.04498 Z"
       class="powerclip"
       style="fill-rule:evenodd"
       id="lpe_path-effect885" /></clipPath><clipPath
     id="clipPath889"
     clipPathUnits="userSpaceOnUse"><rect
       style="display:none;fill:#ffffff;fill-opacity:1;stroke:#ffffff;stroke-width:0.999043"
       id="rect891"
       width="211.18169"
       height="143.91698"
       x="344.87369"
       y="140.77357"
       ry="0" /><path
       inkscape:connector-curvature="0"
       d="M 370.02858,88.772759 H 477.02733 V 171.22428 H 370.02858 Z M 344.87369,140.77357 V 284.69055 H 556.05537 V 140.77357 Z"
       class="powerclip"
       style="fill-rule:evenodd"
       id="lpe_path-effect893" /></clipPath><clipPath
     clipPathUnits="userSpaceOnUse"
     id="clipPath889-4"><rect
       ry="0"
       y="140.77357"
       x="344.87369"
       height="143.91698"
       width="211.18169"
       id="rect891-9"
       style="display:none;fill:#ffffff;fill-opacity:1;stroke:#ffffff;stroke-width:0.999043" /><path
       id="lpe_path-effect893-6"
       style="fill-rule:evenodd"
       class="powerclip"
       d="M 370.02858,88.772759 H 477.02733 V 171.22428 H 370.02858 Z M 344.87369,140.77357 V 284.69055 H 556.05537 V 140.77357 Z"
       inkscape:connector-curvature="0" /></clipPath><clipPath
     clipPathUnits="userSpaceOnUse"
     id="clipPath881-4"><rect
       style="display:none;fill:#ffffff;fill-opacity:1;stroke:#ffffff;stroke-width:1.08998"
       id="rect883-2"
       width="217.02983"
       height="166.69304"
       x="283.54498"
       y="135.04498"
       ry="0"
       d="M 283.54498,135.04498 H 500.57481 V 301.73802 H 283.54498 Z" /><path
       id="lpe_path-effect885-8"
       style="fill-rule:evenodd"
       class="powerclip"
       d="M 284.96468,-5 H 500.98813 V 258.33833 H 284.96468 Z"
       inkscape:connector-curvature="0" /></clipPath><clipPath
     id="clipath_lpe_path-effect900"
     clipPathUnits="userSpaceOnUse"><rect
       d="M 283.54498,135.04498 H 500.57481 V 301.73802 H 283.54498 Z"
       ry="0"
       y="135.04498"
       x="283.54498"
       height="166.69304"
       width="217.02983"
       id="rect1600"
       style="display:none;fill:#ffffff;fill-opacity:1;stroke:#ffffff;stroke-width:1.08998" /><path
       inkscape:connector-curvature="0"
       d="M 284.96468,-5 H 500.98813 V 258.33833 H 284.96468 Z"
       class="powerclip"
       style="fill-rule:evenodd"
       id="lpe_path-effect900-4" /></clipPath><clipPath
     clipPathUnits="userSpaceOnUse"
     id="clipath_lpe_path-effect1672"><rect
       style="display:none;fill:#ffffff;fill-opacity:1;stroke:#ffffff;stroke-width:1.08998"
       id="rect1678"
       width="217.02983"
       height="166.69304"
       x="283.54498"
       y="135.04498"
       ry="0"
       d="M 283.54498,135.04498 H 500.57481 V 301.73802 H 283.54498 Z" /></clipPath><clipPath
     id="clipath_lpe_path-effect1674"
     clipPathUnits="userSpaceOnUse"><rect
       ry="0"
       y="135.04498"
       x="283.54498"
       height="166.69304"
       width="217.02983"
       id="rect1683"
       style="display:block;fill:#ffffff;fill-opacity:1;stroke:#ffffff;stroke-width:1.08998" /></clipPath><clipPath
     id="clipath_lpe_path-effect1676"
     clipPathUnits="userSpaceOnUse"><rect
       style="display:block;fill:#ffffff;fill-opacity:1;stroke:#ffffff;stroke-width:0.999043"
       id="rect1688"
       width="211.18169"
       height="143.91698"
       x="344.87369"
       y="140.77357"
       ry="0" /></clipPath></defs><sodipodi:namedview
   inkscape:current-layer="Layer_1"
   inkscape:window-maximized="0"
   inkscape:window-y="23"
   inkscape:window-x="0"
   inkscape:cy="328.56263"
   inkscape:cx="221.23668"
   inkscape:zoom="1.2391705"
   showgrid="false"
   id="namedview1126"
   inkscape:window-height="1005"
   inkscape:window-width="1680"
   inkscape:pageshadow="2"
   inkscape:pageopacity="0"
   guidetolerance="10"
   gridtolerance="10"
   objecttolerance="10"
   borderopacity="1"
   bordercolor="#666666"
   pagecolor="#ffffff"
   inkscape:document-rotation="0" />
<g
   inkscape:path-effect="#path-effect893"
   clip-path="url(#clipPath889)"
   aria-label="{}"
   transform="matrix(1.0276925,0,0,1.1582584,-72.879121,-28.007186)"
   id="text3830"
   style="font-style:normal;font-weight:normal;font-size:88.86599999999999966px;line-height:592.75;font-family:sans-serif;fill:#000000;fill-opacity:1;stroke:none;stroke-width:1.19017"><path
     inkscape:original-d="m 416.0522,166.22428 h -10.19081 q -7.2154,0 -11.52976,-3.68208 -4.27717,-3.64489 -4.27717,-10.71152 v -5.46734 q 0,-6.62031 -2.93823,-9.18661 -2.93823,-2.6035 -9.48416,-2.6035 h -2.60349 v -9.14942 h 2.60349 q 6.54593,0 9.48416,-2.5663 2.93823,-2.6035 2.93823,-9.22381 v -5.46734 q 0,-7.06662 4.27717,-10.711516 4.31436,-3.682085 11.52976,-3.682085 h 10.19081 v 8.331181 h -4.23997 q -2.23157,0 -4.05401,0.33474 -1.78526,0.33473 -3.01262,1.26455 -1.26455,0.96701 -1.89683,2.82665 -0.63228,1.82245 -0.63228,4.72348 v 4.05402 q 0,5.20698 -2.93823,8.7031 -2.90103,3.49612 -8.29398,5.54173 v 0.89262 q 5.39295,2.04561 8.29398,5.54173 2.93823,3.49612 2.93823,8.70311 v 4.05401 q 0,2.90103 0.63228,4.72348 0.63228,1.85964 1.89683,2.82665 1.19017,0.96701 3.01262,1.26456 1.82244,0.33473 4.05401,0.33473 h 4.23997 z"
     inkscape:connector-curvature="0"
     d="m 416.0522,166.22428 h -10.19081 q -7.2154,0 -11.52976,-3.68208 -4.27717,-3.64489 -4.27717,-10.71152 v -5.46734 q 0,-6.62031 -2.93823,-9.18661 -2.93823,-2.6035 -9.48416,-2.6035 h -2.60349 v -9.14942 h 2.60349 q 6.54593,0 9.48416,-2.5663 2.93823,-2.6035 2.93823,-9.22381 v -5.46734 q 0,-7.06662 4.27717,-10.711516 4.31436,-3.682085 11.52976,-3.682085 h 10.19081 v 8.331181 h -4.23997 q -2.23157,0 -4.05401,0.33474 -1.78526,0.33473 -3.01262,1.26455 -1.26455,0.96701 -1.89683,2.82665 -0.63228,1.82245 -0.63228,4.72348 v 4.05402 q 0,5.20698 -2.93823,8.7031 -2.90103,3.49612 -8.29398,5.54173 v 0.89262 q 5.39295,2.04561 8.29398,5.54173 2.93823,3.49612 2.93823,8.70311 v 4.05401 q 0,2.90103 0.63228,4.72348 0.63228,1.85964 1.89683,2.82665 1.19017,0.96701 3.01262,1.26456 1.82244,0.33473 4.05401,0.33473 h 4.23997 z"
     style="font-style:normal;font-variant:normal;font-weight:bold;font-stretch:normal;font-size:76.17079999999999984px;font-family:sans-serif;-inkscape-font-specification:'sans-serif Bold';fill:#000000;stroke-width:1.19017"
     id="path875" /><path
     inkscape:original-d="m 472.02733,134.57323 h -2.60349 q -6.54593,0 -9.48416,2.6035 -2.93823,2.5663 -2.93823,9.18661 v 5.46734 q 0,7.06663 -4.31436,10.71152 -4.27717,3.68208 -11.49257,3.68208 H 431.0037 v -8.33118 h 4.23998 q 2.23156,0 4.01682,-0.33473 1.82244,-0.33474 3.0498,-1.26456 1.26456,-0.96701 1.89684,-2.82665 0.63227,-1.82245 0.63227,-4.72348 v -4.05401 q 0,-5.20699 2.90104,-8.70311 2.93823,-3.49612 8.33118,-5.54173 v -0.89262 q -5.39295,-2.04561 -8.33118,-5.54173 -2.90104,-3.49612 -2.90104,-8.7031 v -4.05402 q 0,-2.90103 -0.63227,-4.72348 -0.63228,-1.85964 -1.89684,-2.82665 -1.22736,-0.92982 -3.0498,-1.26455 -1.78526,-0.33474 -4.01682,-0.33474 h -4.23998 v -8.331181 h 10.19082 q 7.2154,0 11.49257,3.682085 4.31436,3.644896 4.31436,10.711516 v 5.46734 q 0,6.62031 2.93823,9.22381 2.93823,2.5663 9.48416,2.5663 h 2.60349 z"
     inkscape:connector-curvature="0"
     d="m 472.02733,134.57323 h -2.60349 q -6.54593,0 -9.48416,2.6035 -2.93823,2.5663 -2.93823,9.18661 v 5.46734 q 0,7.06663 -4.31436,10.71152 -4.27717,3.68208 -11.49257,3.68208 H 431.0037 v -8.33118 h 4.23998 q 2.23156,0 4.01682,-0.33473 1.82244,-0.33474 3.0498,-1.26456 1.26456,-0.96701 1.89684,-2.82665 0.63227,-1.82245 0.63227,-4.72348 v -4.05401 q 0,-5.20699 2.90104,-8.70311 2.93823,-3.49612 8.33118,-5.54173 v -0.89262 q -5.39295,-2.04561 -8.33118,-5.54173 -2.90104,-3.49612 -2.90104,-8.7031 v -4.05402 q 0,-2.90103 -0.63227,-4.72348 -0.63228,-1.85964 -1.89684,-2.82665 -1.22736,-0.92982 -3.0498,-1.26455 -1.78526,-0.33474 -4.01682,-0.33474 h -4.23998 v -8.331181 h 10.19082 q 7.2154,0 11.49257,3.682085 4.31436,3.644896 4.31436,10.711516 v 5.46734 q 0,6.62031 2.93823,9.22381 2.93823,2.5663 9.48416,2.5663 h 2.60349 z"
     style="font-style:normal;font-variant:normal;font-weight:bold;font-stretch:normal;font-size:76.17079999999999984px;font-family:sans-serif;-inkscape-font-specification:'sans-serif Bold';fill:#000000;stroke-width:1.19017"
     id="path877" /></g><path
   inkscape:original-d="m 301.09247,251.24643 c -2.14349,-1.14956 -5.43085,-3.98472 -7.30524,-6.30033 l -3.408,-4.21021 -0.33778,-83.54502 c -0.22782,-56.34582 0.0499,-84.88013 0.85309,-87.64598 2.25898,-7.77911 12.48077,-14.46412 22.14298,-14.48144 3.41626,-0.006 3.52529,-0.16787 4.24595,-6.29954 0.86088,-7.32471 2.63217,-11.14445 7.07446,-15.25589 4.54593,-4.20737 7.17562,-5.34084 14.3461,-6.18358 6.15511,-0.72342 6.31485,-0.83078 6.32098,-4.24846 0.0174,-9.659399 6.70014,-19.8797291 14.48143,-22.14705914 2.73079,-0.7957 24.10984,-1.08073 63.98801,-0.85309 l 59.88704,0.34186 4.20985,3.40798004 c 8.94311,7.2396901 8.39009,1.02132 8.39009,94.3420791 0,67.27934 -0.29035,83.83451 -1.52206,86.7824 -3.09502,7.40742 -12.56959,13.16098 -21.69952,13.17734 -3.41768,0.006 -3.52506,0.16586 -4.24846,6.32099 -0.84276,7.17048 -1.97623,9.80016 -6.18359,14.34609 -4.11144,4.4423 -7.93118,6.21359 -15.25589,7.07446 -6.13166,0.72065 -6.29342,0.82968 -6.29955,4.24595 -0.0101,5.86549 -2.18764,11.80982 -5.85535,15.9871 -6.62367,7.54395 -3.63507,7.23447 -69.86299,7.23447 -56.3509,0 -60.30525,-0.12922 -63.96155,-2.09012 z m 120.30888,-16.16059 c 1.95568,-1.95569 1.95568,-158.69567 0,-160.65136 -1.94801,-1.948 -111.38669,-1.948 -113.3347,0 -1.95568,1.95569 -1.95568,158.69567 0,160.65136 1.94801,1.948 111.38669,1.948 113.3347,0 z m 28.16468,-28.16469 c 1.95569,-1.95568 1.95569,-158.69567 0,-160.65135 -1.948,-1.94801 -111.38669,-1.94801 -113.33469,0 -0.74355,0.74354 -1.35191,3.00304 -1.35191,5.02111 v 3.66921 l 44.78185,0.33017 44.78185,0.33018 4.89847,2.80436 c 3.01759,1.72755 6.04564,4.75562 7.88611,7.88611 l 2.98764,5.08176 0.3151,68.44018 0.3151,68.44018 h 3.68429 c 2.02635,0 4.29264,-0.60836 5.03619,-1.35191 z m 28.16468,-28.16468 c 1.78725,-1.78724 1.96698,-156.49577 0.18569,-159.82415 -1.12879,-2.10916 -2.94803,-2.17911 -56.66735,-2.17911 -41.66542,0 -55.83813,0.337 -56.85303,1.3519 -0.74354,0.74355 -1.3519,2.99809 -1.3519,5.01008 v 3.65818 l 44.78185,0.34121 c 49.68154,0.37853 48.25877,0.16986 55.22053,8.09888 5.84743,6.65985 6.06258,9.70434 5.68135,80.39801 l -0.34781,64.49732 3.99938,-2e-4 c 2.19967,-1.3e-4 4.60775,-0.60857 5.35129,-1.35212 z"
   inkscape:path-effect="#path-effect900;#path-effect885"
   clip-path="url(#clipPath881)"
   style="fill:#000000;stroke-width:1.12659"
   d="m 301.09247,251.24643 c -2.14349,-1.14956 -5.43085,-3.98472 -7.30524,-6.30033 l -3.408,-4.21021 -0.33778,-83.54502 c -0.22782,-56.34582 0.0499,-84.88013 0.85309,-87.64598 2.25898,-7.77911 12.48077,-14.46412 22.14298,-14.48144 3.41626,-0.006 3.52529,-0.16787 4.24595,-6.29954 0.86088,-7.32471 2.63217,-11.14445 7.07446,-15.25589 4.54593,-4.20737 7.17562,-5.34084 14.3461,-6.18358 6.15511,-0.72342 6.31485,-0.83078 6.32098,-4.24846 0.0174,-9.659399 6.70014,-19.8797291 14.48143,-22.14705914 2.73079,-0.7957 24.10984,-1.08073 63.98801,-0.85309 l 59.88704,0.34186 4.20985,3.40798004 c 8.94311,7.2396901 8.39009,1.02132 8.39009,94.3420791 0,67.27934 -0.29035,83.83451 -1.52206,86.7824 -3.09502,7.40742 -12.56959,13.16098 -21.69952,13.17734 -3.41768,0.006 -3.52506,0.16586 -4.24846,6.32099 -0.84276,7.17048 -1.97623,9.80016 -6.18359,14.34609 -4.11144,4.4423 -7.93118,6.21359 -15.25589,7.07446 -6.13166,0.72065 -6.29342,0.82968 -6.29955,4.24595 -0.0101,5.86549 -2.18764,11.80982 -5.85535,15.9871 -6.62367,7.54395 -3.63507,7.23447 -69.86299,7.23447 -56.3509,0 -60.30525,-0.12922 -63.96155,-2.09012 z m 120.30888,-16.16059 c 1.95568,-1.95569 1.95568,-158.69567 0,-160.65136 -1.94801,-1.948 -111.38669,-1.948 -113.3347,0 -1.95568,1.95569 -1.95568,158.69567 0,160.65136 1.94801,1.948 111.38669,1.948 113.3347,0 z m 28.16468,-28.16469 c 1.95569,-1.95568 1.95569,-158.69567 0,-160.65135 -1.948,-1.94801 -111.38669,-1.94801 -113.33469,0 -0.74355,0.74354 -1.35191,3.00304 -1.35191,5.02111 v 3.66921 l 44.78185,0.33017 44.78185,0.33018 4.89847,2.80436 c 3.01759,1.72755 6.04564,4.75562 7.88611,7.88611 l 2.98764,5.08176 0.3151,68.44018 0.3151,68.44018 h 3.68429 c 2.02635,0 4.29264,-0.60836 5.03619,-1.35191 z m 28.16468,-28.16468 c 1.78725,-1.78724 1.96698,-156.49577 0.18569,-159.82415 -1.12879,-2.10916 -2.94803,-2.17911 -56.66735,-2.17911 -41.66542,0 -55.83813,0.337 -56.85303,1.3519 -0.74354,0.74355 -1.3519,2.99809 -1.3519,5.01008 v 3.65818 l 44.78185,0.34121 c 49.68154,0.37853 48.25877,0.16986 55.22053,8.09888 5.84743,6.65985 6.06258,9.70434 5.68135,80.39801 l -0.34781,64.49732 3.99938,-2e-4 c 2.19967,-1.3e-4 4.60775,-0.60857 5.35129,-1.35212 z"
   id="path3826"
   inkscape:connector-curvature="0"
   transform="translate(-2)" /><path
   inkscape:connector-curvature="0"
   id="path3135"
   d="m 93.544341,452.34612 c -5.06454,-2.78401 -6.15406,-15.90209 -2.50446,-30.15422 4.3974,-17.17235 17.980829,-35.38727 33.598609,-45.05462 9.50773,-5.88525 18.65933,-8.80195 32.76991,-10.44407 l 3.06834,-0.35708 v 11.24642 11.24643 l -3.80474,0.2904 c -8.49804,0.6486 -20.73931,5.8514 -27.98063,11.89237 -9.51065,7.93411 -14.62391,18.33757 -19.02489,38.70812 -1.70667,7.89956 -3.23827,11.04208 -6.11948,12.55592 -2.8746,1.51035 -7.32608,1.54165 -10.002659,0.0703 z"
   style="fill:#8a4ea9;fill-opacity:1;stroke:#8a4ea9;stroke-width:5.01122;stroke-miterlimit:4;stroke-dasharray:none;stroke-opacity:1" /><path
   inkscape:connector-curvature="0"
   id="path3195"
   d="m 52.093004,456.38258 c -4.592869,-1.43362 -6.993462,-3.89919 -7.76681,-7.97703 -0.665303,-3.50814 -0.638919,-17.63097 0.04454,-23.84333 1.814126,-16.48954 9.74521,-37.51437 19.810229,-52.51572 7.525735,-11.21669 17.904438,-22.33233 27.582268,-29.54073 12.240699,-9.11733 29.254809,-17.03474 43.309129,-20.15364 7.26521,-1.61228 19.3302,-3.5387 24.54852,-3.91967 l 3.33612,-0.34487 v 15.57105 15.57105 l -5.11396,0.34758 c -12.20744,0.8297 -23.02679,3.66202 -35.37381,9.84717 -21.89966,10.97047 -38.394349,30.8431 -45.664303,55.01587 -1.70426,5.6667 -2.754036,10.92876 -5.156115,25.84531 -1.415517,8.79015 -2.810395,12.45409 -5.531457,14.52955 -2.937392,2.24045 -9.513493,2.97542 -14.024355,1.56741 z"
   style="fill:#318d22;fill-opacity:1;stroke:#318d22;stroke-width:5.10676;stroke-miterlimit:4;stroke-dasharray:none;stroke-opacity:1"
   sodipodi:nodetypes="ssssssscccsssssss" /><path
   inkscape:connector-curvature="0"
   id="path3187"
   d="m 92.954991,454.81274 c -4.39446,-2.1901 -6.58028,-7.81315 -6.58028,-16.9279 0,-17.52912 7.94975,-35.77153 21.996839,-50.47651 13.27541,-13.89715 28.12779,-21.04648 48.38347,-23.28984 1.7309,-0.1917 3.85519,-0.48412 4.72063,-0.64982 l 1.57355,-0.30129 v 14.00624 14.00623 l -4.14843,0.38372 c -6.07928,0.56232 -11.98717,2.29679 -18.45338,5.41764 -6.46858,3.12199 -8.34395,4.42122 -13.02711,9.02498 -6.47889,6.36905 -10.08598,14.07762 -14.19561,30.3369 -2.8778,11.38567 -4.04404,14.43265 -6.34601,16.57989 -3.33536,3.11117 -9.73115,3.97923 -13.923669,1.88976 z"
   style="fill:#8a4ea9;fill-opacity:1;stroke:#8a4ea9;stroke-width:5.72198;stroke-miterlimit:4;stroke-dasharray:none;stroke-opacity:1" /><path
   inkscape:connector-curvature="0"
   id="path3141"
   d="m 9.834134,454.29032 c -3.61761,-1.87832 -6.2221115,-4.87396 -6.7404315,-7.75268 -0.21573,-1.19819 -0.24853,-6.88048 -0.0729,-12.62733 1.20517,-39.43121 18.1026515,-79.18609 45.9536915,-108.11574 20.03989,-20.816 45.949567,-36.20974 72.943906,-43.33826 11.80508,-3.11743 27.08466,-5.30235 37.19287,-5.31844 l 3.84574,-0.006 v 13.65349 13.65349 l -1.56678,0.003 c -3.25232,0.006 -21.0672,1.7964 -24.07153,2.41895 -6.07523,1.2589 -17.31822,4.77854 -23.86175,7.46999 -17.598159,7.23838 -30.218079,15.70564 -43.500766,29.18659 -12.56861,12.75622 -20.28834,23.64357 -27.22072,38.39018 -7.76272,16.51291 -10.34093,26.69805 -14.25793,56.32566 -0.64245,4.8594 -1.53483,9.5742 -1.98307,10.47735 -0.44824,0.90314 -1.89458,2.60492 -3.21408,3.78172 -4.10305,3.65933 -8.6823,4.27171 -13.44626,1.79818 z"
   style="fill:#c4352d;fill-opacity:1;stroke:#c4352d;stroke-width:5.81562;stroke-miterlimit:4;stroke-dasharray:none;stroke-opacity:1"
   sodipodi:nodetypes="cscsscccccssssssscc" /><path
   inkscape:connector-curvature="0"
   id="path3133"
   d="m 54.878084,452.92392 c -2.96408,-0.5425 -5.14131,-1.75385 -6.20716,-3.45348 -1.35143,-2.15503 -1.18561,-20.56605 0.26245,-29.14022 1.74194,-10.31428 6.56625,-24.40464 11.959,-34.92863 7.1489,-13.95113 18.109025,-27.44934 30.422437,-37.46751 11.162689,-9.08195 27.049049,-17.12444 41.159039,-20.83682 7.19015,-1.89174 23.06173,-4.61972 26.87789,-4.61972 h 1.125 v 11.43258 11.43256 l -5.27755,0.30371 c -14.44922,0.83152 -32.46534,7.34629 -45.53422,16.46553 -14.067579,9.81612 -25.270919,23.40331 -32.381656,39.27187 -4.43239,9.89146 -6.75736,18.75171 -8.83416,33.66626 -0.68848,4.94432 -1.58822,10.17009 -1.99943,11.61283 -0.90503,3.17535 -2.73428,5.5685 -4.54145,5.94144 -3.03507,0.62635 -4.89277,0.7108 -7.03019,0.3196 z"
   style="fill:#000000;fill-opacity:0;stroke:#318d22;stroke-width:8.45565;stroke-miterlimit:4;stroke-dasharray:none;stroke-opacity:1" />
<g
   style="fill:#333333"
   transform="translate(142.54905,-32.51716)"
   id="g1081">
	<g
   style="fill:#333333"
   id="g1079">
		<path
   style="fill:#333333"
   inkscape:connector-curvature="0"
   id="path1077"
   d="m 177,349.35 c -7.8,0 -14.1,6.3 -14.1,14.1 v 24.4 c 0,7.8 6.3,14.1 14.1,14.1 7.8,0 14.1,-6.3 14.1,-14.1 v -24.4 c 0,-7.8 -6.3,-14.1 -14.1,-14.1 z" />
	</g>
</g>
<g
   style="fill:#333333"
   transform="translate(142.54905,-32.51716)"
   id="g1087">
	<g
   style="fill:#333333"
   id="g1085">
		<path
   style="fill:#333333"
   inkscape:connector-curvature="0"
   id="path1083"
   d="m 242.2,349.35 c -7.8,0 -14.1,6.3 -14.1,14.1 v 24.4 c 0,7.8 6.3,14.1 14.1,14.1 7.8,0 14.1,-6.3 14.1,-14.1 v -24.4 c 0,-7.8 -6.3,-14.1 -14.1,-14.1 z" />
	</g>
</g>
<g
   style="fill:#333333"
   transform="translate(142.54905,-32.51716)"
   id="g1093">
	<g
   style="fill:#333333"
   id="g1091">
		<path
   style="fill:#333333"
   inkscape:connector-curvature="0"
   id="path1089"
   d="m 307.3,349.35 c -7.8,0 -14.1,6.3 -14.1,14.1 v 24.4 c 0,7.8 6.3,14.1 14.1,14.1 7.8,0 14.1,-6.3 14.1,-14.1 v -24.4 c 0,-7.8 -6.3,-14.1 -14.1,-14.1 z" />
	</g>
</g>
<g
   transform="translate(142.54905,55.48284)"
   id="g1095">
</g>
<g
   transform="translate(142.54905,55.48284)"
   id="g1097">
</g>
<g
   transform="translate(142.54905,55.48284)"
   id="g1099">
</g>
<g
   transform="translate(142.54905,55.48284)"
   id="g1101">
</g>
<g
   transform="translate(142.54905,55.48284)"
   id="g1103">
</g>
<g
   transform="translate(142.54905,55.48284)"
   id="g1105">
</g>
<g
   transform="translate(142.54905,55.48284)"
   id="g1107">
</g>
<g
   transform="translate(142.54905,55.48284)"
   id="g1109">
</g>
<g
   transform="translate(142.54905,55.48284)"
   id="g1111">
</g>
<g
   transform="translate(142.54905,55.48284)"
   id="g1113">
</g>
<g
   transform="translate(142.54905,55.48284)"
   id="g1115">
</g>
<g
   transform="translate(142.54905,55.48284)"
   id="g1117">
</g>
<g
   transform="translate(142.54905,55.48284)"
   id="g1119">
</g>
<g
   transform="translate(142.54905,55.48284)"
   id="g1121">
</g>
<g
   transform="translate(142.54905,55.48284)"
   id="g1123">
</g>
<g
   transform="translate(142.54905,57.48284)"
   style="stroke:#c1352d;stroke-opacity:0;fill:#333333"
   id="g1075">
	<g
   style="stroke:#c1352d;stroke-opacity:0;fill:#333333"
   id="g1073">
		<path
   sodipodi:nodetypes="cccssccccsccssssssssccscccccccccccccccccccc"
   inkscape:connector-curvature="0"
   style="stroke:#c1352d;stroke-opacity:0;fill:#333333"
   id="path1071"
   d="m 358.8,164.15 c -116.62148,-9.42144 -13.10454,35.25944 4.6,-8.1 l 22.3,-58.4 c 1.7,-4.3 4.5,-17.1 -11.2,-17.1 H 112.8 c -14.3,0 -12.8,12.8 -11.2,17.1 l 22.2,58.4 c 2.1,5.5 5.3,9.1 11.2,9.1 115.17272,-0.16421 52.0026,-1 -22.3,-1 -7.8,0 -14.1,6.3 -14.1,14.1 v 40.6 h 1.3 v -4 c 0,-7.8 -6.3,-14.1 -14.1,-14.1 H 42.1 c -7.8,0 -14.1,6.3 -14.1,14.1 v 122.4 c 0,7.8 6.3,14.1 14.1,14.1 h 43.7 c 7.8,0 17.58827,-7.12347 14.1,-14.1 v -4 h -1.1 v 54.5 c 0,7.8 6.3,14.1 14.1,14.1 282.74635,0.25137 184.79247,0 282.99995,0 7.8,0 6.1,-6.3 6.1,-14.1 L 381.00315,183.06773 C 381.49208,172.17553 378.05945,164.48357 358.8,164.15 Z M 44.2,335.05 v -118.1 h 41.4 v 118.1 z m 98.6,-182.2 -21.5,-56.2 H 366 l -21.5,56.2 z m 238.99995,228.8 H 119 v -197.4 h 242.5 c 20.29995,197.4 0,0 20.29995,197.4 z" />
	</g>
</g></svg>
