<?xml version="1.0" encoding="UTF-8" standalone="no"?>
<!DOCTYPE svg PUBLIC "-//W3C//DTD SVG 1.1//EN"
 "http://www.w3.org/Graphics/SVG/1.1/DTD/svg11.dtd">
<!-- Generated by graphviz version 2.49.3 (20211023.0002)
 -->
<!-- Title: graphname Pages: 1 -->
<svg width="250pt" height="365pt"
 viewBox="0.00 0.00 250.00 365.00" xmlns="http://www.w3.org/2000/svg" xmlns:xlink="http://www.w3.org/1999/xlink">
<g id="graph0" class="graph" transform="scale(1 1) rotate(0) translate(4 361)">
<title>graphname</title>
<polygon fill="white" stroke="transparent" points="-4,4 -4,-361 246,-361 246,4 -4,4"/>
<text text-anchor="middle" x="121" y="-7.8" font-family="Times New Roman,serif" font-size="14.00">Basic workshow of Mill and JsonGrinder</text>
<!-- a -->
<g id="node1" class="node">
<title>a</title>
<polygon fill="none" stroke="black" points="168,-357 74,-357 74,-319 168,-319 168,-357"/>
<text text-anchor="middle" x="121" y="-341.8" font-family="Times New Roman,serif" font-size="14.00">step 1</text>
<text text-anchor="middle" x="121" y="-326.8" font-family="Times New Roman,serif" font-size="14.00">create schema</text>
</g>
<!-- b -->
<g id="node2" class="node">
<title>b</title>
<polygon fill="none" stroke="black" points="209,-283 33,-283 33,-245 209,-245 209,-283"/>
<text text-anchor="middle" x="121" y="-267.8" font-family="Times New Roman,serif" font-size="14.00">step 2</text>
<text text-anchor="middle" x="121" y="-252.8" font-family="Times New Roman,serif" font-size="14.00">create extractor from schema</text>
</g>
<!-- a&#45;&gt;b -->
<g id="edge1" class="edge">
<title>a&#45;&gt;b</title>
<path fill="none" stroke="black" d="M121,-318.83C121,-311.13 121,-301.97 121,-293.42"/>
<polygon fill="black" stroke="black" points="124.5,-293.41 121,-283.41 117.5,-293.41 124.5,-293.41"/>
</g>
<!-- c -->
<g id="node3" class="node">
<title>c</title>
<polygon fill="none" stroke="black" points="240,-209 2,-209 2,-171 240,-171 240,-209"/>
<text text-anchor="middle" x="121" y="-193.8" font-family="Times New Roman,serif" font-size="14.00">step 3</text>
<text text-anchor="middle" x="121" y="-178.8" font-family="Times New Roman,serif" font-size="14.00">create model from schema and extractor</text>
</g>
<!-- b&#45;&gt;c -->
<g id="edge2" class="edge">
<title>b&#45;&gt;c</title>
<path fill="none" stroke="black" d="M121,-244.83C121,-237.13 121,-227.97 121,-219.42"/>
<polygon fill="black" stroke="black" points="124.5,-219.41 121,-209.41 117.5,-219.41 124.5,-219.41"/>
</g>
<!-- d -->
<g id="node4" class="node">
<title>d</title>
<polygon fill="none" stroke="black" points="238,-135 4,-135 4,-97 238,-97 238,-135"/>
<text text-anchor="middle" x="121" y="-119.8" font-family="Times New Roman,serif" font-size="14.00">step 4</text>
<text text-anchor="middle" x="121" y="-104.8" font-family="Times New Roman,serif" font-size="14.00">prepare training data using the extractor</text>
</g>
<!-- c&#45;&gt;d -->
<g id="edge3" class="edge">
<title>c&#45;&gt;d</title>
<path fill="none" stroke="black" d="M121,-170.83C121,-163.13 121,-153.97 121,-145.42"/>
<polygon fill="black" stroke="black" points="124.5,-145.41 121,-135.41 117.5,-145.41 124.5,-145.41"/>
</g>
<!-- e -->
<g id="node5" class="node">
<title>e</title>
<polygon fill="none" stroke="black" points="171,-61 71,-61 71,-23 171,-23 171,-61"/>
<text text-anchor="middle" x="121" y="-45.8" font-family="Times New Roman,serif" font-size="14.00">step 5</text>
<text text-anchor="middle" x="121" y="-30.8" font-family="Times New Roman,serif" font-size="14.00">train the model</text>
</g>
<!-- d&#45;&gt;e -->
<g id="edge4" class="edge">
<title>d&#45;&gt;e</title>
<path fill="none" stroke="black" d="M121,-96.83C121,-89.13 121,-79.97 121,-71.42"/>
<polygon fill="black" stroke="black" points="124.5,-71.41 121,-61.41 117.5,-71.41 124.5,-71.41"/>
</g>
</g>
</svg>
