<?xml version="1.0" encoding="UTF-8" standalone="no"?>
<!DOCTYPE svg PUBLIC "-//W3C//DTD SVG 1.1//EN"
 "http://www.w3.org/Graphics/SVG/1.1/DTD/svg11.dtd">
<!-- Generated by graphviz version 2.50.0 (20211204.2007)
 -->
<!-- Title: graphname Pages: 1 -->
<svg width="247pt" height="365pt"
 viewBox="0.00 0.00 247.00 365.00" xmlns="http://www.w3.org/2000/svg" xmlns:xlink="http://www.w3.org/1999/xlink">
<g id="graph0" class="graph" transform="scale(1 1) rotate(0) translate(4 361)">
<title>graphname</title>
<text text-anchor="middle" x="119.5" y="-7.8" font-family="Times,serif" font-size="14.00" fill="#f2f2f2">Basic workflow of Mill and JsonGrinder</text>
<!-- a -->
<g id="node1" class="node">
<title>a</title>
<polygon fill="none" stroke="#f2f2f2" points="166.5,-357 72.5,-357 72.5,-319 166.5,-319 166.5,-357"/>
<text text-anchor="middle" x="119.5" y="-341.8" font-family="Times,serif" font-size="14.00" fill="#f2f2f2">step 1</text>
<text text-anchor="middle" x="119.5" y="-326.8" font-family="Times,serif" font-size="14.00" fill="#f2f2f2">create schema</text>
</g>
<!-- b -->
<g id="node2" class="node">
<title>b</title>
<polygon fill="none" stroke="#f2f2f2" points="207.5,-283 31.5,-283 31.5,-245 207.5,-245 207.5,-283"/>
<text text-anchor="middle" x="119.5" y="-267.8" font-family="Times,serif" font-size="14.00" fill="#f2f2f2">step 2</text>
<text text-anchor="middle" x="119.5" y="-252.8" font-family="Times,serif" font-size="14.00" fill="#f2f2f2">create extractor from schema</text>
</g>
<!-- a&#45;&gt;b -->
<g id="edge1" class="edge">
<title>a&#45;&gt;b</title>
<path fill="none" stroke="#f2f2f2" d="M119.5,-318.83C119.5,-311.13 119.5,-301.97 119.5,-293.42"/>
<polygon fill="#f2f2f2" stroke="#f2f2f2" points="123,-293.41 119.5,-283.41 116,-293.41 123,-293.41"/>
</g>
<!-- c -->
<g id="node3" class="node">
<title>c</title>
<polygon fill="none" stroke="#f2f2f2" points="238.5,-209 0.5,-209 0.5,-171 238.5,-171 238.5,-209"/>
<text text-anchor="middle" x="119.5" y="-193.8" font-family="Times,serif" font-size="14.00" fill="#f2f2f2">step 3</text>
<text text-anchor="middle" x="119.5" y="-178.8" font-family="Times,serif" font-size="14.00" fill="#f2f2f2">create model from schema and extractor</text>
</g>
<!-- b&#45;&gt;c -->
<g id="edge2" class="edge">
<title>b&#45;&gt;c</title>
<path fill="none" stroke="#f2f2f2" d="M119.5,-244.83C119.5,-237.13 119.5,-227.97 119.5,-219.42"/>
<polygon fill="#f2f2f2" stroke="#f2f2f2" points="123,-219.41 119.5,-209.41 116,-219.41 123,-219.41"/>
</g>
<!-- d -->
<g id="node4" class="node">
<title>d</title>
<polygon fill="none" stroke="#f2f2f2" points="236.5,-135 2.5,-135 2.5,-97 236.5,-97 236.5,-135"/>
<text text-anchor="middle" x="119.5" y="-119.8" font-family="Times,serif" font-size="14.00" fill="#f2f2f2">step 4</text>
<text text-anchor="middle" x="119.5" y="-104.8" font-family="Times,serif" font-size="14.00" fill="#f2f2f2">prepare training data using the extractor</text>
</g>
<!-- c&#45;&gt;d -->
<g id="edge3" class="edge">
<title>c&#45;&gt;d</title>
<path fill="none" stroke="#f2f2f2" d="M119.5,-170.83C119.5,-163.13 119.5,-153.97 119.5,-145.42"/>
<polygon fill="#f2f2f2" stroke="#f2f2f2" points="123,-145.41 119.5,-135.41 116,-145.41 123,-145.41"/>
</g>
<!-- e -->
<g id="node5" class="node">
<title>e</title>
<polygon fill="none" stroke="#f2f2f2" points="169.5,-61 69.5,-61 69.5,-23 169.5,-23 169.5,-61"/>
<text text-anchor="middle" x="119.5" y="-45.8" font-family="Times,serif" font-size="14.00" fill="#f2f2f2">step 5</text>
<text text-anchor="middle" x="119.5" y="-30.8" font-family="Times,serif" font-size="14.00" fill="#f2f2f2">train the model</text>
</g>
<!-- d&#45;&gt;e -->
<g id="edge4" class="edge">
<title>d&#45;&gt;e</title>
<path fill="none" stroke="#f2f2f2" d="M119.5,-96.83C119.5,-89.13 119.5,-79.97 119.5,-71.42"/>
<polygon fill="#f2f2f2" stroke="#f2f2f2" points="123,-71.41 119.5,-61.41 116,-71.41 123,-71.41"/>
</g>
</g>
</svg>
